<svg width="58.000000" height="58.000000" viewBox="0 0 58 58" fill="none" xmlns="http://www.w3.org/2000/svg" xmlns:xlink="http://www.w3.org/1999/xlink">
	<desc>
			Created with Pixso.
	</desc>
	<defs>
		<clipPath id="clip1_158">
			<rect id="pagination-default.svg" rx="-0.491525" width="57.016949" height="57.016949" transform="translate(0.491525 0.491525)" fill="white" fill-opacity="0"/>
		</clipPath>
		<linearGradient x1="57.508480" y1="0.491695" x2="0.491547" y2="57.508644" id="paint_linear_1_163_0" gradientUnits="userSpaceOnUse">
			<stop stop-color="#665DCD"/>
			<stop offset="0.447624" stop-color="#5FA4E6"/>
			<stop offset="1.000000" stop-color="#D2AB67"/>
		</linearGradient>
		<linearGradient x1="38.338985" y1="22.179550" x2="18.874584" y2="36.803455" id="paint_linear_1_166_0" gradientUnits="userSpaceOnUse">
			<stop stop-color="#665DCD"/>
			<stop offset="0.447624" stop-color="#5FA4E6"/>
			<stop offset="1.000000" stop-color="#D2AB67"/>
		</linearGradient>
	</defs>
	<g clip-path="url(#clip1_158)">
		<path id="Oval" d="M29 0.49C44.74 0.49 57.5 13.25 57.5 29C57.5 44.74 44.74 57.5 29 57.5C13.25 57.5 0.49 44.74 0.49 29C0.49 13.25 13.25 0.49 29 0.49ZM29 1.47C13.79 1.47 1.47 13.79 1.47 29C1.47 44.2 13.79 56.52 29 56.52C44.2 56.52 56.52 44.2 56.52 29C56.52 13.79 44.2 1.47 29 1.47Z" fill="url(#paint_linear_1_163_0)" fill-opacity="1.000000" fill-rule="nonzero"/>
		<path id="Fill-1" d="M19.14 28.85L26.68 20.93C27.04 20.57 27.61 20.53 28.02 20.89C28.39 21.22 28.4 21.86 28.06 22.21L22 28.56L37.39 28.56C37.91 28.56 38.33 28.97 38.33 29.49C38.33 30 37.91 30.42 37.39 30.42L22 30.42L28.06 36.76C28.4 37.12 28.37 37.74 28.02 38.08C27.65 38.44 27.03 38.41 26.68 38.04L19.14 30.13C18.91 29.91 18.87 29.71 18.87 29.49C18.87 29.27 19 28.98 19.14 28.85Z" fill="url(#paint_linear_1_166_0)" fill-opacity="1.000000" fill-rule="evenodd"/>
	</g>
</svg>
