<svg width="58.000000" height="58.000000" viewBox="0 0 58 58" fill="none" xmlns="http://www.w3.org/2000/svg" xmlns:xlink="http://www.w3.org/1999/xlink">
	<desc>
			Created with Pixso.
	</desc>
	<defs>
		<clipPath id="clip1_168">
			<rect id="pagination-default.svg" rx="-0.491525" width="57.016949" height="57.016949" transform="matrix(-1 0 0 1 58.4915 0.491525)" fill="white" fill-opacity="0"/>
		</clipPath>
		<linearGradient x1="0.491520" y1="0.491695" x2="57.508453" y2="57.508644" id="paint_linear_1_173_0" gradientUnits="userSpaceOnUse">
			<stop stop-color="#665DCD"/>
			<stop offset="0.447624" stop-color="#5FA4E6"/>
			<stop offset="1.000000" stop-color="#D2AB67"/>
		</linearGradient>
		<linearGradient x1="19.661011" y1="22.179550" x2="39.125412" y2="36.803455" id="paint_linear_1_176_0" gradientUnits="userSpaceOnUse">
			<stop stop-color="#665DCD"/>
			<stop offset="0.447624" stop-color="#5FA4E6"/>
			<stop offset="1.000000" stop-color="#D2AB67"/>
		</linearGradient>
	</defs>
	<g clip-path="url(#clip1_168)">
		<path id="Oval" d="M29 0.49C13.25 0.49 0.49 13.25 0.49 29C0.49 44.74 13.25 57.5 29 57.5C44.74 57.5 57.5 44.74 57.5 29C57.5 13.25 44.74 0.49 29 0.49ZM29 1.47C44.2 1.47 56.52 13.79 56.52 29C56.52 44.2 44.2 56.52 29 56.52C13.79 56.52 1.47 44.2 1.47 29C1.47 13.79 13.79 1.47 29 1.47Z" fill="url(#paint_linear_1_173_0)" fill-opacity="1.000000" fill-rule="nonzero"/>
		<path id="Fill-1" d="M38.86 28.85L31.31 20.93C30.95 20.57 30.38 20.53 29.97 20.89C29.6 21.22 29.59 21.86 29.93 22.21L35.99 28.56L20.6 28.56C20.08 28.56 19.66 28.97 19.66 29.49C19.66 30 20.08 30.42 20.6 30.42L35.99 30.42L29.93 36.76C29.59 37.12 29.62 37.74 29.97 38.08C30.34 38.44 30.96 38.41 31.31 38.04L38.86 30.13C39.08 29.91 39.12 29.71 39.12 29.49C39.12 29.27 38.99 28.98 38.86 28.85Z" fill="url(#paint_linear_1_176_0)" fill-opacity="1.000000" fill-rule="evenodd"/>
	</g>
</svg>
