<svg width="20.000000" height="20.000000" viewBox="0 0 20 20" fill="none" xmlns="http://www.w3.org/2000/svg" xmlns:xlink="http://www.w3.org/1999/xlink">
	<desc>
			Created with Pixso.
	</desc>
	<defs>
		<clipPath id="clip1_206">
			<rect id="arrow.svg" rx="-0.500000" width="19.000000" height="19.000000" transform="translate(0.500000 0.500000)" fill="white" fill-opacity="0"/>
		</clipPath>
		<linearGradient x1="0.000000" y1="2.561979" x2="19.799995" y2="17.438017" id="paint_linear_1_208_0" gradientUnits="userSpaceOnUse">
			<stop stop-color="#665DCD"/>
			<stop offset="0.447624" stop-color="#5FA4E6"/>
			<stop offset="1.000000" stop-color="#D2AB67"/>
		</linearGradient>
	</defs>
	<g clip-path="url(#clip1_206)">
		<path id="Fill-1" d="M19.53 9.34L11.85 1.29C11.49 0.92 10.91 0.88 10.49 1.25C10.11 1.59 10.1 2.23 10.45 2.59L16.62 9.05L0.95 9.05C0.42 9.05 0 9.47 0 10C0 10.52 0.42 10.94 0.95 10.94L16.62 10.94L10.45 17.4C10.1 17.76 10.13 18.39 10.49 18.74C10.87 19.1 11.49 19.07 11.85 18.7L19.53 10.65C19.75 10.43 19.79 10.22 19.79 10C19.79 9.78 19.66 9.48 19.53 9.34Z" fill="url(#paint_linear_1_208_0)" fill-opacity="1.000000" fill-rule="evenodd"/>
	</g>
</svg>
